<svg width="102" height="82" viewBox="0 0 102 82" fill="none" xmlns="http://www.w3.org/2000/svg">
<path d="M69.5673 53.6203C71.8185 54.2449 67.3361 52.9956 69.5673 53.6203Z" fill="white"/>
<path d="M69.5672 53.6203C66.8777 52.8676 63.9691 52.8195 61.2797 52.0668C60.4629 51.8426 58.8492 51.5703 58.5105 50.8176C58.1918 50.0809 58.1918 49.216 58.132 48.4473C58.0922 47.8387 58.0723 47.2301 58.0723 46.6215C58.0723 46.2211 59.3473 45.3723 59.6262 45.0039C60.702 43.5625 60.8016 41.6246 61.0008 39.991C62.734 40.3754 62.9531 37.7969 63.252 37.0121C63.4711 36.4676 64.8059 32.7199 62.734 33.2324C63.232 32.5277 63.4313 31.6629 63.5707 30.8781C63.9691 28.8281 64.1285 26.5859 63.3516 24.584C61.7379 20.4199 56.7773 18.0816 51.5379 17.9535C46.2188 17.8094 40.8797 19.8594 38.8875 24.0074C37.9312 26.0254 38.0109 28.2195 38.3297 30.3336C38.4691 31.2945 38.6684 32.3676 39.266 33.2324C37.3336 32.768 38.3695 36.0672 38.5887 36.6438C38.9074 37.4605 39.1863 40.3914 40.9992 39.991C41.1586 41.2883 41.3379 42.6176 41.7762 43.8828C42.075 44.7316 42.6926 45.4523 43.4098 46.109C43.7684 46.4293 43.9477 46.4613 43.9277 46.8777C43.9078 48.127 43.9477 49.4723 43.5492 50.6895C43.1508 51.9066 39.8238 52.4191 38.4891 52.6434C34.9031 53.2359 31.5961 53.5082 28.6078 55.302C25.1215 57.368 23.3086 60.5871 23.3086 64.0625H78.6914C78.6914 59.3379 75.1453 55.1738 69.5672 53.6203Z" fill="white"/>
<path d="M28.5479 51.6503L28.8666 51.5222C28.8068 51.5382 28.7471 51.5703 28.7072 51.5863C28.6475 51.6023 28.6076 51.6183 28.5479 51.6503Z" fill="white"/>
<path d="M28.548 51.6504C27.8707 51.9226 27.0539 52.259 28.7074 51.5863L28.8668 51.5222C30.2215 51.0097 31.6758 50.8816 33.1301 50.7695C33.6879 50.7215 33.9469 50.4172 33.5285 49.9847C32.7316 49.1679 29.9824 49.0078 28.827 48.6394C28.1098 48.4152 27.9105 48.207 27.8508 47.5664C27.8309 47.2781 27.6316 45.9968 27.9105 45.7886C28.1098 45.6285 29.3648 45.6926 29.6438 45.6605C30.7793 45.5484 31.9348 45.3562 33.0105 45.0199C33.4687 44.8758 33.907 44.6996 34.3055 44.4754C34.7836 44.1871 33.9469 43.4824 33.7277 43.098C33.0504 41.8969 32.7516 40.5836 32.652 39.2703C32.4527 36.6918 32.9508 34.0972 32.3531 31.5347C31.4566 27.6109 27.6914 25.641 22.8902 25.641C19.9219 25.641 16.9934 26.4578 15.3398 28.5398C13.507 30.8301 13.6066 33.6808 13.7063 36.2914C13.766 37.7808 13.8457 39.2863 13.5867 40.7758C13.4672 41.4164 13.2879 42.041 13.009 42.6496C12.7898 43.114 11.6742 44.2672 12.1125 44.5074C13.766 45.4523 16.5551 45.7726 18.5473 45.6445C18.607 46.4293 18.7863 47.4383 18.4277 48.175C17.8699 49.3281 13.7063 49.6324 12.4512 49.9687C8.96484 50.8976 6.375 53.1718 6.375 56.375H22.2129C22.4719 56.375 23.468 54.8855 23.7469 54.6453C25.1016 53.4441 26.7551 52.4031 28.548 51.6504Z" fill="white"/>
<path d="M89.509 49.9528C87.8953 49.5364 84.7875 49.4082 83.632 48.2871C83.0543 47.7266 83.373 46.3012 83.4328 45.6286C84.3094 45.6926 85.2656 45.5805 86.1621 45.4844C86.9789 45.3883 87.7758 45.2602 88.5527 45.036C88.9113 44.9239 89.2699 44.8118 89.6086 44.6516C90.3855 44.2832 90.027 44.2192 89.6285 43.6746C87.457 40.7438 88.4332 37.0282 88.3336 33.809C88.2539 31.1344 87.3773 28.2036 84.3492 26.6981C81.6199 25.3368 77.5758 25.2887 74.6473 26.2496C66.2004 28.9723 71.1809 37.9731 68.2922 43.1301C67.7941 43.995 67.077 44.2993 68.332 44.8118C69.0293 45.1 69.7863 45.2922 70.5434 45.4364C71.6988 45.6606 72.8941 45.7887 74.0895 45.8207C74.2887 45.8207 74.1492 47.8387 74.0895 48.0469C73.8703 48.8317 71.7387 49.0559 70.9418 49.2321C70.125 49.4082 68.7703 49.4563 68.3719 50.145C67.7742 51.17 70.3441 50.9137 70.9816 51.0098C73.0336 51.3141 74.8465 52.227 76.4402 53.268C77.6355 54.0528 79.2492 55.1098 79.6875 56.3911H95.6648C95.625 53.1719 93.0152 50.8817 89.509 49.9528Z" fill="white"/>
</svg>
