<svg width="142" height="60" viewBox="0 0 142 60" fill="none" xmlns="http://www.w3.org/2000/svg">
<path d="M1.5 19.5882L9.5 13L15 9.5H19L25 12L40.5 19L43 20.5H45.5H48L50 19L70 6.5L73 5H76.5L80 5.5L81.5 6.5L101 16L106.5 19.5L109 20.5H111.5L113.5 19L138 2L139.5 1L141 41.5L111.5 40H96L82.5 42L62.5 45L41.5 49L20.5 54L1.5 58.5V19.5882Z" fill="white"/>
<path d="M1 20L1.5 19.5882M1.5 19V19.5882M1.5 19.5882L9.5 13L15 9.5H19L25 12L40.5 19L43 20.5H45.5H48L50 19L70 6.5L73 5H76.5L80 5.5L81.5 6.5L101 16L106.5 19.5L109 20.5H111.5L113.5 19L138 2L139.5 1L141 41.5L111.5 40H96L82.5 42L62.5 45L41.5 49L20.5 54L1.5 58.5V19.5882Z" stroke="black"/>
</svg>
